<?xml version="1.0" encoding="utf-8"?>
<!-- Generator: Adobe Illustrator 22.1.0, SVG Export Plug-In . SVG Version: 6.00 Build 0)  -->
<svg version="1.1" id="Layer_1" xmlns="http://www.w3.org/2000/svg" xmlns:xlink="http://www.w3.org/1999/xlink" x="0px" y="0px"
	 viewBox="0 0 200 200" style="enable-background:new 0 0 200 200;" xml:space="preserve">
<style type="text/css">
	.st0{fill:#FCBF75;stroke:#391410;stroke-width:6;stroke-linecap:round;stroke-linejoin:round;stroke-miterlimit:10;}
	.st1{fill:#FFBE57;stroke:#391410;stroke-width:5;stroke-linecap:round;stroke-linejoin:round;stroke-miterlimit:10;}
	.st2{fill:#CC4825;stroke:#391410;stroke-width:5;stroke-linecap:round;stroke-linejoin:round;stroke-miterlimit:10;}
	.st3{fill:#FCEE21;stroke:#391410;stroke-width:5;stroke-linecap:round;stroke-linejoin:round;stroke-miterlimit:10;}
	.st4{fill:#8C6239;stroke:#391410;stroke-width:5;stroke-linecap:round;stroke-linejoin:round;stroke-miterlimit:10;}
	.st5{fill:#48B748;stroke:#391410;stroke-width:5;stroke-linecap:round;stroke-linejoin:round;stroke-miterlimit:10;}
	.st6{fill:#F9AE41;stroke:#391410;stroke-width:5;stroke-linecap:round;stroke-linejoin:round;stroke-miterlimit:10;}
	.st7{fill:#EA6D36;stroke:#391410;stroke-width:5;stroke-linecap:round;stroke-linejoin:round;stroke-miterlimit:10;}
	.st8{fill:#ED1C24;stroke:#391410;stroke-width:5;stroke-linecap:round;stroke-linejoin:round;stroke-miterlimit:10;}
	.st9{clip-path:url(#SVGID_2_);}
	.st10{fill:none;stroke:#391410;stroke-width:5;stroke-linecap:round;stroke-linejoin:round;stroke-miterlimit:10;}
	.st11{fill:#FFFFFF;stroke:#391410;stroke-width:5;stroke-linecap:round;stroke-linejoin:round;stroke-miterlimit:10;}
	.st12{fill:#F7C331;stroke:#391410;stroke-width:5;stroke-linecap:round;stroke-linejoin:round;stroke-miterlimit:10;}
</style>
<g>
	<g>
		<g>
			<rect x="79.5" y="46.2" class="st3" width="14" height="73.9"/>
			<rect x="94.5" y="36.8" class="st3" width="14" height="73.9"/>
			<polygon class="st3" points="120,124.3 106,123.5 111,49.7 125,50.5 			"/>
			<polygon class="st3" points="133,130 119,129.1 124,55.4 138,56.2 			"/>
			<polygon class="st3" points="78.4,133.7 64.8,136.8 46.6,64.9 60.2,61.8 			"/>
			<polygon class="st3" points="84.8,128.7 70.9,130.2 62.2,56.7 76.1,55.2 			"/>
			<polygon class="st3" points="137.3,135 123.6,132.2 139.7,59.9 153.4,62.6 			"/>
			<path class="st8" d="M134.3,90.3c-2.9,10.8-17.2,19-34.5,19s-31.6-8.2-34.5-19h-13l17,73h15h31h15l17-73H134.3z"/>
			<circle class="st3" cx="99.9" cy="134.8" r="15.5"/>
		</g>
		<path class="st10" d="M99.5,142.3c0,0,9,0,9-10"/>
	</g>
</g>
</svg>
