<?xml version="1.0" encoding="utf-8"?>
<!-- Generator: Adobe Illustrator 22.1.0, SVG Export Plug-In . SVG Version: 6.00 Build 0)  -->
<svg version="1.1" id="Layer_1" xmlns="http://www.w3.org/2000/svg" xmlns:xlink="http://www.w3.org/1999/xlink" x="0px" y="0px"
	 viewBox="0 0 200 200" style="enable-background:new 0 0 200 200;" xml:space="preserve">
<style type="text/css">
	.st0{fill:#FCBF75;stroke:#391410;stroke-width:6;stroke-linecap:round;stroke-linejoin:round;stroke-miterlimit:10;}
	.st1{fill:#FFBE57;stroke:#391410;stroke-width:5;stroke-linecap:round;stroke-linejoin:round;stroke-miterlimit:10;}
	.st2{fill:#CC4825;stroke:#391410;stroke-width:5;stroke-linecap:round;stroke-linejoin:round;stroke-miterlimit:10;}
	.st3{fill:#FCEE21;stroke:#391410;stroke-width:5;stroke-linecap:round;stroke-linejoin:round;stroke-miterlimit:10;}
	.st4{fill:#8C6239;stroke:#391410;stroke-width:5;stroke-linecap:round;stroke-linejoin:round;stroke-miterlimit:10;}
	.st5{fill:#48B748;stroke:#391410;stroke-width:5;stroke-linecap:round;stroke-linejoin:round;stroke-miterlimit:10;}
	.st6{fill:#F9AE41;stroke:#391410;stroke-width:5;stroke-linecap:round;stroke-linejoin:round;stroke-miterlimit:10;}
	.st7{fill:#EA6D36;stroke:#391410;stroke-width:5;stroke-linecap:round;stroke-linejoin:round;stroke-miterlimit:10;}
	.st8{fill:#ED1C24;stroke:#391410;stroke-width:5;stroke-linecap:round;stroke-linejoin:round;stroke-miterlimit:10;}
	.st9{clip-path:url(#SVGID_2_);}
	.st10{fill:none;stroke:#391410;stroke-width:5;stroke-linecap:round;stroke-linejoin:round;stroke-miterlimit:10;}
	.st11{fill:#FFFFFF;stroke:#391410;stroke-width:5;stroke-linecap:round;stroke-linejoin:round;stroke-miterlimit:10;}
	.st12{fill:#F7C331;stroke:#391410;stroke-width:5;stroke-linecap:round;stroke-linejoin:round;stroke-miterlimit:10;}
</style>
<g>
	<g>
		<g>
			<path class="st1" d="M87.9,162.6h-1.1c-10.1,0-18.4-8.2-18.4-18.4V58.6c0-10.1,8.2-18.4,18.4-18.4h1.1c10.1,0,18.4,8.2,18.4,18.4
				v85.6C106.2,154.4,98,162.6,87.9,162.6z"/>
			<path class="st1" d="M113.2,162.6h-1.1c-10.1,0-18.4-8.2-18.4-18.4V58.6c0-10.1,8.2-18.4,18.4-18.4h1.1
				c10.1,0,18.4,8.2,18.4,18.4v85.6C131.5,154.4,123.3,162.6,113.2,162.6z"/>
		</g>
		<path class="st8" d="M100.4,168.2h-0.8c-7.4,0-13.5-6-13.5-13.5V45.3c0-7.4,6-13.5,13.5-13.5h0.8c7.4,0,13.5,6,13.5,13.5v109.4
			C113.8,162.1,107.8,168.2,100.4,168.2z"/>
		<g>
			<path class="st10" d="M104.7,44.9c0,8-8,8-8,16c0,8,8,8,8,16c0,8-8,8-8,16c0,8,8,8,8,16c0,8-8,8-8,16c0,8,8,8,8,16s-8,8-8,16"/>
		</g>
	</g>
</g>
</svg>
